<svg width="35" height="35" viewBox="0 0 35 35" fill="none" xmlns="http://www.w3.org/2000/svg">
<path d="M32.0846 23.6117C32.0846 28.9201 28.9201 32.0846 23.6117 32.0846H21.8763C21.0742 32.0846 20.418 31.4284 20.418 30.6263V22.2117C20.418 21.818 20.7388 21.4825 21.1326 21.4825L23.6992 21.4388C23.9034 21.4242 24.0784 21.2784 24.1221 21.0742L24.6325 18.2888C24.6425 18.2257 24.6386 18.1611 24.6211 18.0997C24.6037 18.0382 24.5731 17.9812 24.5315 17.9327C24.4899 17.8842 24.4383 17.8452 24.3802 17.8186C24.3221 17.792 24.259 17.7782 24.1951 17.7784L21.0888 17.8221C20.6805 17.8221 20.3596 17.5013 20.3451 17.1076L20.2867 13.5346C20.2867 13.3013 20.4763 13.0971 20.7242 13.0971L24.2242 13.0388C24.4721 13.0388 24.6617 12.8492 24.6617 12.6013L24.6034 9.1013C24.6034 8.85338 24.4138 8.6638 24.1659 8.6638L20.2284 8.72214C19.6536 8.73087 19.0862 8.85294 18.5587 9.08136C18.0311 9.30977 17.5539 9.64004 17.1542 10.0532C16.7546 10.4664 16.4404 10.9544 16.2297 11.4893C16.019 12.0241 15.9159 12.5953 15.9263 13.1701L15.9992 17.1805C16.0138 17.5888 15.693 17.9096 15.2846 17.9242L13.5346 17.9534C13.2867 17.9534 13.0971 18.143 13.0971 18.3909L13.1409 21.1617C13.1409 21.4096 13.3305 21.5992 13.5784 21.5992L15.3284 21.5701C15.7367 21.5701 16.0576 21.8909 16.0721 22.2846L16.2034 30.5971C16.218 31.4138 15.5617 32.0846 14.7451 32.0846H11.3909C6.08255 32.0846 2.91797 28.9201 2.91797 23.5971V11.3909C2.91797 6.08255 6.08255 2.91797 11.3909 2.91797H23.6117C28.9201 2.91797 32.0846 6.08255 32.0846 11.3909V23.6117Z" fill="white"/>
</svg>
