<svg width="21" height="19" viewBox="0 0 21 19" fill="none" xmlns="http://www.w3.org/2000/svg">
<path d="M14.7213 0.957031C12.9113 0.957031 11.2912 1.83703 10.2812 3.18703C9.76538 2.49584 9.09551 1.93442 8.32478 1.54733C7.55406 1.16023 6.70372 0.958117 5.84125 0.957031C2.77125 0.957031 0.28125 3.45703 0.28125 6.54703C0.28125 7.73703 0.47125 8.83703 0.80125 9.85703C2.38125 14.857 7.25125 17.847 9.66125 18.667C10.0013 18.787 10.5612 18.787 10.9012 18.667C13.3112 17.847 18.1812 14.857 19.7612 9.85703C20.0912 8.83703 20.2812 7.73703 20.2812 6.54703C20.2812 3.45703 17.7913 0.957031 14.7213 0.957031V0.957031Z" fill="white"/>
</svg>
