<svg width="35" height="35" viewBox="0 0 35 35" fill="none" xmlns="http://www.w3.org/2000/svg">
<path d="M23.6117 2.91797H11.3909C6.08255 2.91797 2.91797 6.08255 2.91797 11.3909V23.5971C2.91797 28.9201 6.08255 32.0846 11.3909 32.0846H23.5971C28.9055 32.0846 32.0701 28.9201 32.0701 23.6117V11.3909C32.0846 6.08255 28.9201 2.91797 23.6117 2.91797ZM17.5013 23.1596C14.3805 23.1596 11.843 20.6221 11.843 17.5013C11.843 14.3805 14.3805 11.843 17.5013 11.843C20.6221 11.843 23.1596 14.3805 23.1596 17.5013C23.1596 20.6221 20.6221 23.1596 17.5013 23.1596ZM26.1346 10.0346C26.0617 10.2096 25.9596 10.3701 25.8284 10.5159C25.6826 10.6471 25.5221 10.7492 25.3471 10.8221C25.0817 10.9348 24.7888 10.9658 24.5057 10.9113C24.2226 10.8567 23.9621 10.7191 23.7576 10.5159C23.6263 10.3701 23.5242 10.2096 23.4513 10.0346C23.3764 9.85937 23.3368 9.67106 23.3346 9.48047C23.3346 9.29088 23.3784 9.1013 23.4513 8.9263C23.5242 8.73672 23.6263 8.59089 23.7576 8.44505C24.093 8.10963 24.6034 7.94922 25.0701 8.0513C25.1721 8.06589 25.2596 8.09505 25.3471 8.1388C25.4346 8.16797 25.5221 8.21172 25.6096 8.27005C25.6826 8.3138 25.7555 8.38672 25.8284 8.44505C25.9596 8.59089 26.0617 8.73672 26.1346 8.9263C26.2076 9.1013 26.2513 9.29088 26.2513 9.48047C26.2513 9.67005 26.2076 9.85964 26.1346 10.0346Z" fill="white"/>
</svg>
